<svg width="223" height="85" viewBox="0 0 223 85" fill="none" xmlns="http://www.w3.org/2000/svg">
<path d="M0.33252 24.3111L49.2357 39.5436C51.2153 36.7099 53.527 33.9631 56.5595 31.925C57.1534 31.5259 57.7734 31.1561 58.4218 30.8213C58.5615 30.9528 59.294 31.3313 59.6428 31.5042C59.8238 31.5986 60.24 31.8007 60.4564 31.8538C60.5321 32.4785 60.4519 33.2059 60.2498 34.0049C59.6808 36.2534 58.1457 39.0695 56.401 41.763L100.052 54.0076L96.1123 56.021L69.5767 54.2594L51.2171 48.8832C51.0338 49.1116 50.8603 49.3256 50.6984 49.5236C48.6957 52.2295 42.021 59.5238 36.0953 65.612L44.5287 65.2842L42.6536 67.1718L30.1642 71.3906L20.8093 60.0714L20.5501 59.7428L21.1444 56.7839L33.4239 65.0363C37.8281 57.3893 43.6754 48.0202 44.4706 46.8755L24.2913 40.8705L0.921868 28.084L0.33252 24.3111Z" fill="white"/>
<path d="M56.8189 31.7534C57.4386 31.3027 58.3805 30.8046 59.0592 30.4897C59.4428 30.6391 60.2657 31.1469 60.4476 31.3007C60.5159 31.9513 60.5278 33.1846 60.2447 34.0078C58.8036 33.9445 57.0477 32.4048 56.8189 31.7534Z" fill="white"/>
<path d="M60.4478 31.3027C60.3257 31.6038 58.9354 30.7249 59.0592 30.4897C59.4035 30.4133 60.3905 31.0289 60.4478 31.3027Z" fill="white"/>
<path d="M61.4084 31.7868C60.5599 31.5041 60.2259 31.1214 60.1649 30.9654L60.4261 30.4943C60.5672 30.4845 60.9003 30.4816 61.1043 30.5477C61.3083 30.6139 64.3478 32.6644 65.531 33.5306C64.7176 33.1676 62.2569 32.0695 61.4084 31.7868Z" fill="white"/>
<path d="M57.1084 29.517C58.0462 30.3537 59.0783 30.6269 59.5557 30.6276L59.8169 30.1566C59.3632 29.5384 58.72 29.2551 58.57 29.1426C58.268 28.9161 56.1845 28.0974 54.8249 27.4853L54.5051 27.6661C55.052 28.0523 56.1707 28.6803 57.1084 29.517Z" fill="white"/>
<path d="M59.2919 30.3101C59.1797 30.5232 60.4393 31.3193 60.5499 31.0465C60.5991 30.9251 60.4588 29.8388 60.423 29.8174C60.3872 29.7961 59.4153 30.1917 59.2919 30.3101Z" fill="white"/>
<path fill-rule="evenodd" clip-rule="evenodd" d="M47.9751 84.6156C71.2349 84.6156 90.0908 65.7597 90.0908 42.4999C90.0908 19.24 71.2349 0.384156 47.9751 0.384155C24.7152 0.384155 5.85936 19.24 5.85936 42.4999C5.85936 65.7597 24.7152 84.6156 47.9751 84.6156ZM47.9751 81.4706C69.498 81.4706 86.9458 64.0228 86.9458 42.4999C86.9458 20.977 69.498 3.52918 47.9751 3.52917C26.4522 3.52917 9.00438 20.977 9.00438 42.4999C9.00438 64.0228 26.4522 81.4706 47.9751 81.4706Z" fill="white"/>
<path d="M110.4 76H142.514V72.51H110.4V76Z" fill="#009069"/>
<path d="M142.514 76H174.628V72.51H142.514V76Z" fill="white"/>
<path d="M174.628 76H206.742V72.51H174.628V76Z" fill="#CD2A3E"/>
<path d="M110.398 34V12.584H113.401V31.3926H122.703V34H110.398Z" fill="white"/>
<path d="M132.356 17.5644C133.762 17.5644 134.968 17.8672 135.974 18.4726C136.98 19.0683 137.752 19.9131 138.289 21.0068C138.826 22.1006 139.094 23.3896 139.094 24.874V26.5439H128.137C128.167 28.2724 128.611 29.6006 129.47 30.5283C130.33 31.4463 131.536 31.9053 133.088 31.9053C134.114 31.9053 135.027 31.8076 135.828 31.6123C136.628 31.417 137.459 31.1289 138.318 30.748V33.2236C137.507 33.5947 136.692 33.8633 135.872 34.0293C135.061 34.2051 134.089 34.2929 132.957 34.2929C131.394 34.2929 130.022 33.9804 128.84 33.3554C127.669 32.7304 126.755 31.8076 126.101 30.5869C125.447 29.3564 125.12 27.8428 125.12 26.0459C125.12 24.2685 125.418 22.75 126.013 21.4902C126.609 20.2207 127.449 19.249 128.533 18.5752C129.617 17.9013 130.891 17.5644 132.356 17.5644ZM132.341 19.8496C131.15 19.8496 130.193 20.2402 129.47 21.0215C128.748 21.7929 128.323 22.9013 128.196 24.3467H136.135C136.126 23.458 135.984 22.6767 135.711 22.0029C135.437 21.3291 135.022 20.8017 134.465 20.4209C133.919 20.04 133.211 19.8496 132.341 19.8496Z" fill="white"/>
<path d="M149.29 17.5791C151.282 17.5791 152.771 18.0234 153.757 18.9121C154.744 19.791 155.237 21.1826 155.237 23.0869V34H153.128L152.556 31.6562H152.439C151.99 32.2422 151.521 32.7304 151.033 33.1211C150.544 33.5117 149.978 33.8047 149.334 34C148.699 34.1953 147.922 34.2929 147.004 34.2929C146.028 34.2929 145.159 34.1172 144.397 33.7656C143.635 33.414 143.035 32.8867 142.595 32.1836C142.166 31.4707 141.951 30.5674 141.951 29.4736C141.951 27.833 142.581 26.5879 143.84 25.7383C145.1 24.8887 147.009 24.4248 149.568 24.3467L152.351 24.2295V23.3213C152.351 22.0615 152.068 21.1728 151.502 20.6553C150.945 20.1377 150.164 19.8789 149.158 19.8789C148.328 19.8789 147.532 20.001 146.77 20.2451C146.008 20.4795 145.276 20.7627 144.573 21.0947L143.635 18.956C144.397 18.5654 145.261 18.2383 146.228 17.9746C147.205 17.7109 148.225 17.5791 149.29 17.5791ZM152.322 26.1631L150.066 26.2656C148.201 26.334 146.887 26.6465 146.126 27.2031C145.374 27.75 144.998 28.5166 144.998 29.5029C144.998 30.3623 145.256 30.9922 145.774 31.3926C146.292 31.7929 146.975 31.9931 147.825 31.9931C149.133 31.9931 150.208 31.6269 151.047 30.8945C151.897 30.1523 152.322 29.0586 152.322 27.6133V26.1631Z" fill="white"/>
<path d="M168.186 17.5644C170.051 17.5644 171.482 18.0332 172.478 18.9707C173.484 19.9082 173.987 21.4121 173.987 23.4824V34H171.072V23.8779C171.072 22.5888 170.789 21.622 170.222 20.9775C169.656 20.3232 168.787 19.9961 167.615 19.9961C165.945 19.9961 164.773 20.4892 164.099 21.4756C163.435 22.4619 163.103 23.8926 163.103 25.7676V34H160.159V17.8574H162.488L162.913 20.1279H163.074C163.416 19.5615 163.85 19.0879 164.378 18.707C164.905 18.3262 165.491 18.0429 166.135 17.8574C166.79 17.6621 167.473 17.5644 168.186 17.5644Z" fill="white"/>
<path d="M177.151 34L181.707 12.584H186.189L181.619 34H177.151Z" fill="white"/>
<path d="M197.659 17.3154C199.407 17.3154 200.813 17.7939 201.878 18.751C202.942 19.6982 203.474 21.2217 203.474 23.3213V34H199.006V24.4345C199.006 23.2627 198.792 22.3789 198.362 21.7832C197.942 21.1875 197.278 20.8896 196.37 20.8896C195.003 20.8896 194.07 21.3535 193.572 22.2812C193.074 23.209 192.825 24.5469 192.825 26.2949V34H188.357V17.623H191.77L192.371 19.7178H192.62C192.971 19.1513 193.406 18.6924 193.923 18.3408C194.451 17.9892 195.032 17.7304 195.667 17.5644C196.311 17.3984 196.975 17.3154 197.659 17.3154Z" fill="white"/>
<path d="M212.864 41.207C210.579 41.207 208.831 40.8066 207.62 40.0058C206.419 39.2148 205.818 38.1015 205.818 36.666C205.818 35.6797 206.126 34.8545 206.741 34.1904C207.356 33.5263 208.259 33.0527 209.451 32.7695C208.992 32.5742 208.591 32.2568 208.25 31.8174C207.908 31.3681 207.737 30.8945 207.737 30.3965C207.737 29.7715 207.918 29.2539 208.279 28.8437C208.64 28.4238 209.163 28.0137 209.846 27.6133C208.987 27.2422 208.303 26.6465 207.795 25.8262C207.297 25.0058 207.048 24.039 207.048 22.9258C207.048 21.7344 207.307 20.7236 207.825 19.8935C208.352 19.0537 209.114 18.414 210.11 17.9746C211.116 17.5351 212.336 17.3154 213.772 17.3154C214.075 17.3154 214.426 17.3349 214.827 17.374C215.227 17.4131 215.593 17.457 215.925 17.5058C216.267 17.5547 216.497 17.5937 216.614 17.623H222.327V19.8935L219.763 20.5527C219.998 20.914 220.173 21.2998 220.291 21.7099C220.408 22.1201 220.466 22.5547 220.466 23.0137C220.466 24.7715 219.851 26.1435 218.621 27.1299C217.4 28.1064 215.701 28.5947 213.523 28.5947C213.005 28.5654 212.517 28.5263 212.058 28.4775C211.834 28.6533 211.663 28.8388 211.545 29.0342C211.428 29.2295 211.37 29.4345 211.37 29.6494C211.37 29.8642 211.458 30.0449 211.633 30.1914C211.819 30.3281 212.092 30.4355 212.454 30.5137C212.825 30.582 213.284 30.6162 213.831 30.6162H216.614C218.411 30.6162 219.778 31.0019 220.715 31.7734C221.663 32.5449 222.136 33.6777 222.136 35.1719C222.136 37.0859 221.336 38.5703 219.734 39.625C218.142 40.6797 215.852 41.207 212.864 41.207ZM213.054 38.292C214.119 38.292 215.032 38.1894 215.794 37.9844C216.565 37.789 217.156 37.5058 217.566 37.1347C217.976 36.7734 218.181 36.3388 218.181 35.831C218.181 35.4209 218.059 35.0937 217.815 34.8496C217.581 34.6152 217.219 34.4492 216.731 34.3515C216.253 34.2539 215.637 34.2051 214.885 34.2051H212.571C212.024 34.2051 211.531 34.2929 211.091 34.4687C210.662 34.6445 210.32 34.8886 210.066 35.2011C209.812 35.5234 209.685 35.8945 209.685 36.3144C209.685 36.9297 209.978 37.4131 210.564 37.7646C211.16 38.1162 211.99 38.292 213.054 38.292ZM213.772 25.8701C214.612 25.8701 215.227 25.6113 215.618 25.0937C216.008 24.5762 216.204 23.873 216.204 22.9844C216.204 21.998 215.999 21.2607 215.588 20.7724C215.188 20.2744 214.583 20.0254 213.772 20.0254C212.952 20.0254 212.336 20.2744 211.926 20.7724C211.516 21.2607 211.311 21.998 211.311 22.9844C211.311 23.873 211.511 24.5762 211.912 25.0937C212.322 25.6113 212.942 25.8701 213.772 25.8701Z" fill="white"/>
<path d="M116.301 40.584C119.065 40.584 121.082 41.1357 122.351 42.2392C123.63 43.3428 124.27 44.9101 124.27 46.9414C124.27 47.8594 124.124 48.7334 123.831 49.5635C123.538 50.3838 123.059 51.1113 122.395 51.7461C121.741 52.3711 120.877 52.8691 119.802 53.2402C118.728 53.6015 117.41 53.7822 115.847 53.7822H113.401V62H110.398V40.584H116.301ZM116.067 43.1035H113.401V51.248H115.525C116.765 51.248 117.805 51.1113 118.645 50.8379C119.485 50.5547 120.12 50.1054 120.549 49.4902C120.979 48.875 121.194 48.0644 121.194 47.0586C121.194 45.7304 120.779 44.7392 119.949 44.0849C119.119 43.4306 117.825 43.1035 116.067 43.1035Z" fill="white"/>
<path d="M136.047 45.5644C136.34 45.5644 136.658 45.584 137 45.623C137.341 45.6523 137.634 45.6914 137.878 45.7402L137.571 48.4795C137.336 48.4209 137.063 48.372 136.751 48.333C136.448 48.2939 136.165 48.2744 135.901 48.2744C135.276 48.2744 134.68 48.3916 134.114 48.626C133.547 48.8603 133.049 49.2021 132.62 49.6513C132.19 50.0908 131.853 50.6328 131.609 51.2773C131.365 51.9121 131.243 52.6396 131.243 53.4599V62H128.284V45.8574H130.657L131.008 48.7724H131.14C131.472 48.1865 131.873 47.6494 132.341 47.1611C132.82 46.6728 133.367 46.2871 133.982 46.0039C134.607 45.7109 135.295 45.5644 136.047 45.5644Z" fill="white"/>
<path d="M154.988 53.8994C154.988 55.2275 154.812 56.414 154.461 57.459C154.119 58.4941 153.616 59.373 152.952 60.0957C152.297 60.8086 151.506 61.3554 150.579 61.7363C149.651 62.1074 148.601 62.2929 147.429 62.2929C146.336 62.2929 145.33 62.1074 144.412 61.7363C143.503 61.3554 142.717 60.8086 142.053 60.0957C141.389 59.373 140.877 58.4941 140.515 57.459C140.154 56.414 139.973 55.2275 139.973 53.8994C139.973 52.1318 140.276 50.6279 140.881 49.3877C141.487 48.1377 142.351 47.1904 143.474 46.5459C144.607 45.8916 145.955 45.5644 147.517 45.5644C149.002 45.5644 150.305 45.8916 151.428 46.5459C152.551 47.2002 153.425 48.1474 154.05 49.3877C154.675 50.6279 154.988 52.1318 154.988 53.8994ZM142.991 53.8994C142.991 55.1396 143.147 56.209 143.46 57.1074C143.782 57.9961 144.27 58.6797 144.924 59.1582C145.588 59.6367 146.443 59.876 147.488 59.876C148.513 59.876 149.358 59.6367 150.022 59.1582C150.686 58.6797 151.174 57.9961 151.487 57.1074C151.799 56.209 151.956 55.1396 151.956 53.8994C151.956 52.6689 151.799 51.6142 151.487 50.7353C151.174 49.8564 150.686 49.1826 150.022 48.7138C149.368 48.2451 148.513 48.0107 147.459 48.0107C145.916 48.0107 144.783 48.5283 144.06 49.5635C143.347 50.5888 142.991 52.0342 142.991 53.8994Z" fill="white"/>
<path d="M157.302 69.207C156.804 69.207 156.35 69.1679 155.94 69.0898C155.52 69.0215 155.159 68.9385 154.856 68.8408V66.4824C155.178 66.5801 155.496 66.6533 155.808 66.7021C156.121 66.751 156.472 66.7754 156.863 66.7754C157.517 66.7754 158.049 66.5947 158.46 66.2334C158.87 65.872 159.075 65.2031 159.075 64.2265V45.8574H162.019V64.3437C162.019 65.3203 161.853 66.1748 161.521 66.9072C161.199 67.6396 160.686 68.206 159.983 68.6064C159.29 69.0068 158.396 69.207 157.302 69.207ZM158.87 41.4922C158.87 40.8769 159.031 40.4326 159.353 40.1592C159.685 39.8857 160.09 39.749 160.569 39.749C161.038 39.749 161.438 39.8857 161.77 40.1592C162.112 40.4326 162.283 40.8769 162.283 41.4922C162.283 42.1074 162.112 42.5566 161.77 42.8398C161.438 43.1133 161.038 43.25 160.569 43.25C160.09 43.25 159.685 43.1133 159.353 42.8398C159.031 42.5566 158.87 42.1074 158.87 41.4922Z" fill="white"/>
<path d="M173.372 45.5644C174.778 45.5644 175.984 45.8672 176.99 46.4726C177.996 47.0683 178.767 47.9131 179.304 49.0068C179.841 50.1006 180.11 51.3896 180.11 52.874V54.5439H169.153C169.182 56.2724 169.627 57.6006 170.486 58.5283C171.345 59.4463 172.551 59.9053 174.104 59.9053C175.129 59.9053 176.043 59.8076 176.843 59.6123C177.644 59.417 178.474 59.1289 179.334 58.748V61.2236C178.523 61.5947 177.708 61.8633 176.887 62.0293C176.077 62.2051 175.105 62.2929 173.972 62.2929C172.41 62.2929 171.038 61.9804 169.856 61.3554C168.684 60.7304 167.771 59.8076 167.117 58.5869C166.462 57.3564 166.135 55.8428 166.135 54.0459C166.135 52.2685 166.433 50.75 167.029 49.4902C167.625 48.2207 168.464 47.249 169.548 46.5752C170.632 45.9013 171.907 45.5644 173.372 45.5644ZM173.357 47.8496C172.166 47.8496 171.209 48.2402 170.486 49.0215C169.763 49.7929 169.338 50.9013 169.211 52.3467H177.151C177.141 51.458 177 50.6767 176.726 50.0029C176.453 49.3291 176.038 48.8017 175.481 48.4209C174.934 48.04 174.226 47.8496 173.357 47.8496Z" fill="white"/>
<path d="M190.613 62.2929C189.128 62.2929 187.83 61.9951 186.716 61.3994C185.603 60.8037 184.739 59.8955 184.124 58.6748C183.518 57.4443 183.215 55.8916 183.215 54.0166C183.215 52.0635 183.543 50.4668 184.197 49.2265C184.851 47.9765 185.754 47.0537 186.907 46.458C188.069 45.8623 189.397 45.5644 190.891 45.5644C191.77 45.5644 192.59 45.6523 193.352 45.8281C194.124 46.0039 194.768 46.2236 195.286 46.4873L194.407 48.875C193.86 48.6601 193.269 48.4697 192.634 48.3037C192.009 48.1377 191.414 48.0547 190.847 48.0547C189.812 48.0547 188.953 48.2842 188.269 48.7431C187.595 49.1924 187.087 49.8564 186.746 50.7353C186.404 51.6142 186.233 52.6982 186.233 53.9873C186.233 55.2373 186.399 56.2969 186.731 57.166C187.073 58.0254 187.571 58.6797 188.225 59.1289C188.889 59.5781 189.714 59.8027 190.701 59.8027C191.57 59.8027 192.351 59.7051 193.044 59.5097C193.738 59.3144 194.378 59.0654 194.963 58.7627V61.3554C194.397 61.6679 193.772 61.9023 193.088 62.0586C192.405 62.2148 191.58 62.2929 190.613 62.2929Z" fill="white"/>
<path d="M204.397 59.9053C204.817 59.9053 205.242 59.8711 205.671 59.8027C206.101 59.7246 206.472 59.6269 206.785 59.5097V61.7656C206.453 61.9121 206.008 62.0342 205.452 62.1318C204.905 62.2392 204.343 62.2929 203.767 62.2929C202.888 62.2929 202.092 62.1416 201.379 61.8388C200.667 61.5361 200.095 61.0185 199.666 60.2861C199.246 59.5537 199.036 58.5381 199.036 57.2392V48.1279H196.794V46.7656L199.138 45.6816L200.178 42.1953H201.995V45.8574H206.668V48.1279H201.995V57.1953C201.995 58.1035 202.21 58.7822 202.639 59.2314C203.079 59.6806 203.665 59.9053 204.397 59.9053Z" fill="white"/>
</svg>
